<svg xmlns="http://www.w3.org/2000/svg" width="128" height="80"><path fill="#02aedd" fill-rule="evenodd" d="M5 0h118a5 5 0 0 1 5 5v70a5 5 0 0 1-5 5H5a5 5 0 0 1-5-5V5a5 5 0 0 1 5-5z" clip-rule="evenodd"/><path fill="#FFF" d="M97.8 40.46l5.5-6.75 4.2-5.12H94.6l-.92 1.07-2.44 2.85-2.27-2.8-.92-1.13h-26.7l-.82 1.85-2.4 5.4-2.4-5.4-.83-1.84H43.1v4.6l-1.15-2.74-.8-1.9h-9.6l-.8 1.9-7.4 17.72-1.84 4.38h11.3l.77-2.03.88-2.4h3.92l.88 2.4.75 2.03h13.56v-1.45l.64 1.46h7.93l.17-.43v.45h25.06l.92-1.03L91 48.4l2.7 3.1.94 1.05h12.8l-4.1-5.13-5.5-6.9zm-27.53 8.9h-4.9V36.3l-5.3 13.05h-3.9l-5.7-13.24V49.4H42.1l-1.64-4.4H32.3l-1.64 4.4h-4.5l7.4-17.7h5.56l7.06 16.82V31.7h6.74l5.22 11.72 5.2-11.72h6.93v17.65zm25.73 0l-4.97-5.7-5.04 5.7H73.1V31.7h13.5l4.58 5.62L96 31.7h4.93l-7.1 8.74 7.1 8.9H96zM77.42 35.22v3.75h5.92v3.1h-5.92v3.74h6.33l4.66-5.35-4-5.2h-6.95zm-43.68 6h5.1l-2.6-5.96-2.5 5.95z"/></svg>