<svg xmlns="http://www.w3.org/2000/svg" width="750" height="471"><title>Slice 1</title><g fill="none"><rect width="750" height="471" fill="#194ba0" rx="40"/><path fill="#FFF" d="M278.2 334.23l33.36-195.77h53.36l-33.4 195.77H278.2zM524.3 142.7c-10.56-3.98-27.13-8.23-47.8-8.23-52.74 0-89.88 26.55-90.2 64.6-.3 28.13 26.52 43.82 46.76 53.2 20.77 9.58 27.75 15.7 27.65 24.27-.1 13.12-16.54 19.1-31.9 19.1-21.34 0-32.7-2.95-50.2-10.26l-6.88-3.1-7.5 43.8c12.47 5.48 35.5 10.2 59.45 10.45 56.1 0 92.5-26.24 92.9-66.88.2-22.27-14-39.2-44.8-53.2-18.64-9.04-30.06-15.08-29.94-24.25 0-8.14 9.68-16.84 30.57-16.84 17.45-.27 30.08 3.53 39.93 7.5l4.76 2.26 7.23-42.43m137.3-4.27h-41.2c-12.77 0-22.33 3.5-27.94 16.24L513.2 334.1h56.03s9.16-24.12 11.23-29.42c6.13 0 60.56.1 68.34.1 1.6 6.84 6.5 29.32 6.5 29.32h49.5l-43.2-195.64zm-65.4 126.4c4.4-11.27 21.26-54.7 21.26-54.7-.33.5 4.37-11.35 7.06-18.7l3.6 16.88s10.22 46.74 12.36 56.54h-44.3zm-363.3-126.4l-52.24 133.5-5.57-27.13c-9.73-31.26-40.03-65.14-73.9-82.1L149 333.9l56.45-.06 84-195.38H232.9"/><path fill="#F2AE14" d="M131.92 138.47H45.88l-.68 4.07c66.94 16.2 111.23 55.36 129.62 102.4L156.12 155c-3.24-12.4-12.6-16.1-24.2-16.53"/></g></svg>