<svg xmlns="http://www.w3.org/2000/svg" viewBox="0 0 495.26 95.18"><defs><style>.cls-1{fill:#ee1a20}.cls-2{fill:#091217}.cls-3{fill:#0b131a}.cls-4{fill:#f01a26}</style></defs><title>TACTICAL_MASTERY</title><path d="M47.12 35.92L57.98 56.1l10.87-20.2V17.64h47.12V0H0v17.63h47.12v18.3z" class="cls-1"/><path d="M94.8 62.1v33.08h21.17v-70.9L94.8 62.1zM82.57 24.26L57.97 69.9 33.4 24.27H10.2L49.85 95.2H66.1l39.68-70.93h-23.2zM0 95.18h21.16V62.1L0 24.3v70.88z" class="cls-2"/><path d="M164.68 17.65h31v6.6h-11.4v20h-8.15v-20h-11.45v-6.6zm49.52 0h10.6l14.6 26.55h-9.07l-2.53-4.7h-16.5l-2.38 4.7h-9.1zm.14 16.15h10.4l-5.27-10zm33.22-6.84c0-7.78 4.37-9.6 11.7-9.6h9.57c11.6 0 13.1 2.48 13 10h-8.14v-.74c0-1.9-1.4-2.46-3.86-2.46H261c-4.3 0-5.1 2-5.1 5.32v2.86c0 3.85.8 5.32 4.67 5.32h8.68c3.67 0 4.77-.37 4.77-3.67h8.14v2.44c0 4.47-1.62 8-9.8 8h-13.14c-7.33 0-11.7-1.83-11.7-9.6V26.9zm43.47-9.3h31v6.6H310.6v20h-8.14v-20h-11.43v-6.6zm40.87 0h8.13V44.2h-8.14V17.65zm19.38 9.3c0-7.78 4.36-9.6 11.7-9.6h9.57c11.6 0 13.1 2.48 13 10h-8.14v-.74c0-1.9-1.34-2.46-3.8-2.46h-8.83c-4.3 0-5.1 2-5.1 5.32v2.86c0 3.85.8 5.32 4.66 5.32h8.74c3.67 0 4.77-.37 4.77-3.67H386v2.44c0 4.47-1.6 8-9.8 8H363c-7.32 0-11.7-1.83-11.7-9.6V26.9zm57.17-9.3h10.58l14.6 26.54h-9.07l-2.53-4.7h-16.5l-2.38 4.7h-9.12zm.14 16.14H419l-5.28-10zm33.8-16.15h8.12v19.73h18.3v6.82H442.4V17.65zM208.7 58.57h9l6.6 12.25 6.6-12.25h9v19h-5.68V63.94h-.05l-7.65 13.67h-4.37L214.5 64h-.05V77.6h-5.68v-19zm47.7 0h7.63l10.46 19H268l-1.8-3.36h-11.87l-1.7 3.4h-6.53zm.12 11.57h7.5L260.25 63zm23.88 1.24h5.85c0 2 .84 2.18 2.52 2.18h7.15c1.23 0 2.5-.13 2.5-1.6 0-1.66-.68-1.76-8.2-1.76-8.78 0-9.78-1.05-9.78-5.73 0-3.44.3-6.1 7.68-6.1h8.15c6.73 0 7.36 2.3 7.36 5.63v.6h-5.84c0-1.38-.2-2-2.9-2h-6.46c-1.3 0-2.2.46-2.2 1.48 0 1.66.7 1.7 7 1.68 9.06 0 11.16.53 11.16 6.07 0 5.13-1.72 6-9.5 6h-7.05c-5.3 0-7.44-1-7.44-5.12v-1.3zm30.43-12.8h22.2v4.72h-8.2v14.3h-5.8V63.3h-8.2v-4.73zm29 0h20.8V63h-15v3h14.2v3.93h-14.17v3h15.32v4.57h-21.16v-19zm28.87 0h17.62c4.5 0 5.7 2.23 5.7 5.64v1.2c0 2.56-.58 4-3.26 4.7v.04c1.73.3 3.18 1.08 3.18 4.2v3.24h-5.84v-2.3c0-2-.58-2.65-2.4-2.65h-9.16v4.94h-5.84v-19zm5.85 9.35h9.65c1.58 0 2.16-.63 2.16-2v-.63c0-1.68-.84-2-2.68-2h-9.12v4.63zm33.9 3.05l-10.54-12.4h7l6.46 7.77 6.42-7.78h7l-10.54 12.4v6.63h-5.83v-6.62z" class="cls-3"/><path d="M138.26 49.77h357v2.3h-357z" class="cls-4"/></svg>